<svg width="42" height="26" viewBox="0 0 42 26" fill="none" xmlns="http://www.w3.org/2000/svg">
<path fill-rule="evenodd" clip-rule="evenodd" d="M10.7143 0L14.9569 4.24264L19.1996 0H14.6539H10.7143ZM16.9768 11.4819L16.9776 11.4805L16.9778 11.4801C18.9947 7.98614 20.9571 4.58656 22.8842 1.16864C23.3351 0.370849 23.7995 -0.00704833 24.7659 0.048377C25.9008 0.110233 27.0398 0.098288 28.284 0.0852402C28.8303 0.0795111 29.3969 0.0735693 29.9923 0.0735693C26.4743 6.09041 23.0082 12.0205 19.5071 18.0105L19.504 18.0158L15.0055 25.712L0 0.0651685C0.540433 0.0651685 1.06578 0.0627555 1.57985 0.0603943C3.12268 0.0533079 4.56403 0.0466875 6.0073 0.107157C6.31354 0.118914 6.67081 0.629503 6.87837 0.98221C9.23865 4.97731 11.5847 8.98081 13.9167 12.9927C14.1566 13.4024 14.4015 13.8092 14.7154 14.3307L14.7155 14.3308C14.8133 14.4933 14.9178 14.667 15.031 14.8553C15.6829 13.7234 16.3287 12.6046 16.969 11.4953L16.9732 11.4881L16.9768 11.4819ZM41.9651 20.692L41.9652 20.6923C41.9772 20.8684 41.9865 21.0052 41.9897 21.1419C42.0952 25.0939 41.4334 25.759 37.4064 25.7573H17.7614C18.0054 25.3404 18.2433 24.932 18.4772 24.5304L18.4813 24.5234L18.4814 24.5232C19.2635 23.1802 20.0007 21.9143 20.771 20.6683C20.8952 20.4667 21.3104 20.3492 21.5911 20.3492C27.1324 20.334 32.6726 20.3347 38.2979 20.3354H38.2995L38.3312 20.3354C39.5306 20.3356 40.734 20.3357 41.9421 20.3357C41.9502 20.4731 41.9581 20.5892 41.9651 20.692ZM24.4663 14.294L24.4659 14.2948C24.2216 14.7174 23.971 15.1508 23.711 15.5977C25.2123 15.5977 26.6907 15.6002 28.1521 15.6026H28.1526H28.153H28.1531H28.1532C31.9396 15.609 35.6124 15.6151 39.2762 15.5775C40.8687 15.5574 41.7993 14.6135 41.9422 13.0582C41.999 12.4451 41.9842 11.8264 41.9699 11.2285V11.2284V11.2284C41.9636 10.9664 41.9575 10.7084 41.9575 10.4566C41.8856 10.4208 41.8301 10.3875 41.7845 10.3602C41.7124 10.317 41.6652 10.2886 41.6172 10.2886L40.4804 10.2833C36.1246 10.263 31.7688 10.2427 27.413 10.255C27.2442 10.2719 27.0809 10.3243 26.9342 10.4086C26.7875 10.4929 26.6607 10.6072 26.5624 10.7438C25.8603 11.8827 25.1905 13.0413 24.4663 14.294ZM29.6162 5.49181C29.8375 5.05442 30.0506 4.63044 30.2584 4.21703C30.902 2.93661 31.4946 1.75762 32.1222 0.595905C32.2136 0.45664 32.3352 0.339181 32.4782 0.252034C32.6212 0.164886 32.782 0.110233 32.9491 0.092038C35.2598 0.0644425 37.5706 0.066662 39.9368 0.0689346C40.5949 0.0695667 41.2573 0.070203 41.9251 0.070203C41.9251 0.41805 41.9347 0.757958 41.9441 1.09159C41.9646 1.82116 41.9842 2.52072 41.9013 3.20762C41.7431 4.52271 40.7189 5.45318 39.4174 5.47165C37.1045 5.50703 34.7916 5.50165 32.3843 5.49606H32.3842C31.4767 5.49395 30.5557 5.49181 29.6162 5.49181Z" fill="url(#paint0_linear_262_2)"/>
<defs>
<linearGradient id="paint0_linear_262_2" x1="15.5" y1="25.7574" x2="51.5" y2="-10.2426" gradientUnits="userSpaceOnUse">
<stop offset="0.0610656" stop-color="#3D89FB"/>
<stop offset="1" stop-color="#00FFC2"/>
</linearGradient>
</defs>
</svg>
